<?xml version="1.0" encoding="UTF-8" standalone="no"?>
<svg
   xmlns:dc="http://purl.org/dc/elements/1.1/"
   xmlns:cc="http://creativecommons.org/ns#"
   xmlns:rdf="http://www.w3.org/1999/02/22-rdf-syntax-ns#"
   xmlns:svg="http://www.w3.org/2000/svg"
   xmlns="http://www.w3.org/2000/svg"
   xmlns:sodipodi="http://sodipodi.sourceforge.net/DTD/sodipodi-0.dtd"
   xmlns:inkscape="http://www.inkscape.org/namespaces/inkscape"
   id="Ebene_1"
   data-name="Ebene 1"
   viewBox="0 0 155.90803 45.300542"
   version="1.1"
   sodipodi:docname="fzj-logo.svg"
   width="155.90804"
   height="45.300541"
   inkscape:version="0.92.3 (2405546, 2018-03-11)">
  <metadata
     id="metadata13">
    <rdf:RDF>
      <cc:Work
         rdf:about="">
        <dc:format>image/svg+xml</dc:format>
        <dc:type
           rdf:resource="http://purl.org/dc/dcmitype/StillImage" />
        <dc:title>exportieren_als-03</dc:title>
      </cc:Work>
    </rdf:RDF>
  </metadata>
  <defs
     id="defs11" />
  <sodipodi:namedview
     pagecolor="#ffffff"
     bordercolor="#666666"
     borderopacity="1"
     objecttolerance="10"
     gridtolerance="10"
     guidetolerance="10"
     inkscape:pageopacity="0"
     inkscape:pageshadow="2"
     inkscape:window-width="1920"
     inkscape:window-height="1135"
     id="namedview9"
     showgrid="false"
     fit-margin-top="0"
     fit-margin-left="0"
     fit-margin-right="0"
     fit-margin-bottom="0"
     inkscape:zoom="1.7345289"
     inkscape:cx="81.412187"
     inkscape:cy="22.054913"
     inkscape:window-x="0"
     inkscape:window-y="0"
     inkscape:window-maximized="1"
     inkscape:current-layer="Ebene_1" />
  <title
     id="title2">exportieren_als-03</title>
  <path
     d="m 94.288036,36.929103 h -0.64 a 0.23,0.23 0 0 0 -0.23,0.24 v 2.81 c 0,0.83 -0.42,1.28 -1.06,1.28 -0.64,0 -1,-0.45 -1,-1.28 v -2.81 a 0.25,0.25 0 0 0 -0.25,-0.24 h -0.63 a 0.24,0.24 0 0 0 -0.24,0.24 v 2.68 c 0,1.45 0.59,2.35 1.81,2.35 a 1.51,1.51 0 0 0 1.38,-0.66 v 0.32 a 0.23,0.23 0 0 0 0.23,0.24 h 0.64 a 0.24,0.24 0 0 0 0.24,-0.24 v -4.69 a 0.24,0.24 0 0 0 -0.25,-0.24 z m -8,-0.11 a 1.58,1.58 0 0 0 -1.43,0.7 v -2.41 a 0.25,0.25 0 0 0 -0.25,-0.25 h -0.63 a 0.24,0.24 0 0 0 -0.24,0.25 v 6.75 a 0.23,0.23 0 0 0 0.24,0.24 h 0.67 a 0.24,0.24 0 0 0 0.25,-0.24 v -2.8 c 0,-0.83 0.45,-1.29 1.1,-1.29 0.65,0 1.09,0.46 1.09,1.29 v 2.8 a 0.24,0.24 0 0 0 0.24,0.24 h 0.63 a 0.24,0.24 0 0 0 0.25,-0.24 v -2.68 c -0.01,-1.41 -0.62,-2.36 -1.89,-2.36 z m 1.71,-28.8399999 h -2.49 a 0.93,0.93 0 0 0 -0.93,0.93 V 20.789103 c 0,3.09 -1.5,4.41 -3.63,4.41 -2.13,0 -3.57,-1.32 -3.57,-4.41 V 8.9091031 a 0.93,0.93 0 0 0 -0.93,-0.93 h -2.49 a 0.93,0.93 0 0 0 -0.93,0.93 V 20.789103 c 0,5.25 3.18,8.49 7.92,8.49 4.74,0 8,-3.24 8,-8.49 V 8.9091031 a 0.93,0.93 0 0 0 -0.92,-0.93 z m -17.46,28.9999999 h -0.13 a 1.57,1.57 0 0 0 -1.38,0.77 v -0.53 a 0.23,0.23 0 0 0 -0.23,-0.24 h -0.58 a 0.24,0.24 0 0 0 -0.24,0.24 v 4.69 a 0.23,0.23 0 0 0 0.24,0.24 h 0.62 a 0.25,0.25 0 0 0 0.25,-0.24 v -2.39 c 0,-1 0.44,-1.49 1.31,-1.49 h 0.14 a 0.24,0.24 0 0 0 0.25,-0.23 v -0.63 a 0.25,0.25 0 0 0 -0.22,-0.24 z m 9.41,0.84 a 1.07,1.07 0 0 1 1.08,0.92 0.17,0.17 0 0 0 0.17,0.15 h 0.72 a 0.15,0.15 0 0 0 0.15,-0.17 0.32,0.32 0 0 0 0,-0.13 2.11,2.11 0 0 0 -2.1,-1.72 2.19,2.19 0 0 0 -2.2,2.36 v 0.67 a 2.18,2.18 0 0 0 2.2,2.35 2.07,2.07 0 0 0 2.1,-1.66 1.28,1.28 0 0 0 0,-0.17 0.16,0.16 0 0 0 -0.17,-0.16 h -0.72 a 0.15,0.15 0 0 0 -0.16,0.14 1,1 0 0 1 -1.07,0.91 c -0.64,0 -1.11,-0.45 -1.11,-1.28 v -0.92 c 0.03,-0.88 0.5,-1.34 1.14,-1.34 z m -6.63,0.52 c 0,-0.43 0.39,-0.57 0.84,-0.57 a 0.88,0.88 0 0 1 1,0.64 c 0,0.11 0.07,0.16 0.19,0.16 h 0.65 a 0.17,0.17 0 0 0 0.17,-0.18 0.44,0.44 0 0 0 0,-0.13 1.81,1.81 0 0 0 -1.93,-1.39 c -1,0 -2,0.45 -2,1.52 0,2.1 2.94,1.23 2.94,2.31 0,0.48 -0.36,0.66 -1,0.66 a 1,1 0 0 1 -1.06,-0.69 c 0,-0.1 -0.07,-0.17 -0.18,-0.17 h -0.64 a 0.19,0.19 0 0 0 -0.19,0.17 0.31,0.31 0 0 0 0,0.14 1.89,1.89 0 0 0 2,1.44 c 1.07,0 2,-0.4 2,-1.57 0.17,-2.12 -2.76,-1.26 -2.76,-2.39 z m 4.66,-32.1399999 a 2.16,2.16 0 1 0 -2.16,-2.16 2,2 0 0 0 2.19,2.11 z m 6.3,0 a 2.16,2.16 0 1 0 -2.16,-2.16 2,2 0 0 0 2.19,2.11 z m -15.88,2.76 a 0.93,0.93 0 0 0 -0.93,-0.93 h -2.49 a 0.93,0.93 0 0 0 -0.93,0.93 V 22.469103 a 2.54,2.54 0 1 1 -5.07,0 v -0.27 a 0.93,0.93 0 0 0 -0.929998,-0.93 h -2.4 a 0.93,0.93 0 0 0 -0.93,0.93 v 0.21 a 6.84,6.84 0 1 0 13.679998,0 z m -52.129998,10.3399999 7.38,-19.16999991 A 22.7,22.7 0 0 0 1.0380382,12.329103 a 0.5,0.5 0 0 1 0,0.13 l -0.31999997,0.83 c -2.24000003,5.79 1.17999997,10.08 4.49999997,11.36 a 8.55,8.55 0 0 0 11.0499998,-5.35 z m 47.759998,17.52 a 2.2,2.2 0 0 0 -2.22,2.36 v 0.67 a 2.23,2.23 0 1 0 4.46,0 v -0.67 a 2.2,2.2 0 0 0 -2.24,-2.36 z m 1.12,3.16 c 0,0.83 -0.46,1.28 -1.12,1.28 -0.66,0 -1.1,-0.45 -1.1,-1.28 v -0.92 c 0,-0.83 0.47,-1.29 1.1,-1.29 0.63,0 1.12,0.46 1.12,1.29 z m -35.499998,-15.71 c -4.4,11.5 -15,15.81 -24.7099998,14.15 A 22.67,22.67 0 1 0 36.708038,6.0891031 Z m 30.999998,10.59 h -3.999998 a 0.24,0.24 0 0 0 -0.23,0.25 v 6.75 a 0.23,0.23 0 0 0 0.23,0.24 h 0.63 a 0.24,0.24 0 0 0 0.25,-0.24 v -2.65 h 2.499998 a 0.24,0.24 0 0 0 0.24,-0.24 v -0.55 a 0.25,0.25 0 0 0 -0.24,-0.25 h -2.499998 v -2.27 h 3.119998 a 0.25,0.25 0 0 0 0.25,-0.24 v -0.55 a 0.25,0.25 0 0 0 -0.25,-0.25 z m 85.450004,2.07 h -0.63 a 0.24,0.24 0 0 0 -0.24,0.24 v 2.81 c 0,0.83 -0.42,1.28 -1.06,1.28 -0.64,0 -1,-0.45 -1,-1.28 v -2.81 a 0.25,0.25 0 0 0 -0.25,-0.24 h -0.63 a 0.24,0.24 0 0 0 -0.24,0.24 v 2.68 c 0,1.45 0.59,2.35 1.81,2.35 a 1.51,1.51 0 0 0 1.38,-0.66 v 0.32 a 0.23,0.23 0 0 0 0.24,0.24 h 0.63 a 0.24,0.24 0 0 0 0.24,-0.24 v -4.69 a 0.24,0.24 0 0 0 -0.28,-0.24 z m -10.59,-15.45 h -3.09 c -0.6,0 -0.72,0.48 -0.78,0.93 a 3.13,3.13 0 0 1 -3.42,2.79 c -2.19,0 -4,-1.62 -4,-4.71 v -4 c 0,-3.09 1.77,-4.77 4,-4.77 a 3.27,3.27 0 0 1 3.43,2.92 c 0.09,0.6 0.42,0.81 0.75,0.81 h 3.06 a 0.63,0.63 0 0 0 0.66,-0.75 7.55,7.55 0 0 0 -7.9,-7.0599999 c -4.8,0 -8.31,3.5399999 -8.31,8.7899999 v 4 c 0,5.25 3.51,8.79 8.31,8.79 a 7.71,7.71 0 0 0 8,-7.08 0.68,0.68 0 0 0 -0.71,-0.66 z m 4.6,15.45 h -0.14 a 1.54,1.54 0 0 0 -1.37,0.77 v -0.53 a 0.24,0.24 0 0 0 -0.24,-0.24 h -0.58 a 0.24,0.24 0 0 0 -0.24,0.24 v 4.69 a 0.23,0.23 0 0 0 0.24,0.24 h 0.62 a 0.25,0.25 0 0 0 0.25,-0.24 v -2.34 c 0,-1 0.44,-1.49 1.31,-1.49 h 0.15 a 0.23,0.23 0 0 0 0.24,-0.23 v -0.63 a 0.24,0.24 0 0 0 -0.24,-0.24 z m -4.69,0 h -1.05 v -1.1 a 0.24,0.24 0 0 0 -0.24,-0.25 h -0.61 a 0.24,0.24 0 0 0 -0.23,0.25 v 0.45 c 0,0.53 -0.21,0.65 -0.72,0.65 a 0.24,0.24 0 0 0 -0.24,0.24 v 0.47 a 0.24,0.24 0 0 0 0.24,0.24 h 0.71 v 2.56 c 0,1.07 0.36,1.66 1.6,1.66 h 0.54 a 0.24,0.24 0 0 0 0.24,-0.24 v -0.53 a 0.23,0.23 0 0 0 -0.24,-0.23 h -0.36 c -0.62,0 -0.69,-0.22 -0.69,-0.81 v -2.38 h 1.05 a 0.24,0.24 0 0 0 0.23,-0.27 v -0.5 a 0.24,0.24 0 0 0 -0.23,-0.21 z m 18.62,-0.11 a 1.81,1.81 0 0 0 -1.61,0.84 1.64,1.64 0 0 0 -1.52,-0.84 1.47,1.47 0 0 0 -1.34,0.7 v -0.35 a 0.25,0.25 0 0 0 -0.25,-0.24 h -0.67 a 0.24,0.24 0 0 0 -0.24,0.24 v 4.69 a 0.23,0.23 0 0 0 0.24,0.24 h 0.63 a 0.25,0.25 0 0 0 0.25,-0.24 v -2.64 c 0,-0.83 0.16,-1.45 1,-1.45 0.84,0 1,0.51 1,1.45 v 2.64 a 0.24,0.24 0 0 0 0.24,0.24 h 0.64 a 0.24,0.24 0 0 0 0.24,-0.24 v -2.64 c 0,-0.89 0.21,-1.45 1.05,-1.45 0.84,0 1,0.56 1,1.45 v 2.64 a 0.23,0.23 0 0 0 0.24,0.24 h 0.71 a 0.25,0.25 0 0 0 0.25,-0.24 v -2.53 c -0.04,-1.49 -0.34,-2.51 -1.86,-2.51 z m -25,0 a 1.57,1.57 0 0 0 -1.42,0.71 v -0.36 a 0.24,0.24 0 0 0 -0.24,-0.24 h -0.64 a 0.23,0.23 0 0 0 -0.23,0.24 v 4.69 a 0.23,0.23 0 0 0 0.23,0.24 h 0.64 a 0.24,0.24 0 0 0 0.24,-0.24 v -2.8 c 0,-0.83 0.46,-1.29 1.1,-1.29 0.64,0 1.1,0.46 1.1,1.29 v 2.8 a 0.23,0.23 0 0 0 0.24,0.24 h 0.59 a 0.24,0.24 0 0 0 0.24,-0.24 v -2.68 c 0.02,-1.41 -0.6,-2.36 -1.87,-2.36 z m 26,-28.8399999 h -2.49 a 0.93,0.93 0 0 0 -0.93,0.93 v 7.4999999 h -7.17 V 8.9091031 a 0.93,0.93 0 0 0 -0.93,-0.93 h -2.49 a 0.93,0.93 0 0 0 -0.93,0.93 V 28.049103 a 0.93,0.93 0 0 0 0.93,0.93 h 2.49 a 0.93,0.93 0 0 0 0.93,-0.93 v -7.56 h 7.11 v 7.56 a 0.93,0.93 0 0 0 0.93,0.93 h 2.49 a 0.93,0.93 0 0 0 0.93,-0.93 V 8.9091031 a 0.93,0.93 0 0 0 -0.93,-0.93 z M 99.218036,36.819103 a 1.57,1.57 0 0 0 -1.42,0.71 v -0.36 a 0.24,0.24 0 0 0 -0.24,-0.24 h -0.63 a 0.24,0.24 0 0 0 -0.24,0.24 v 4.69 a 0.23,0.23 0 0 0 0.24,0.24 h 0.63 a 0.24,0.24 0 0 0 0.24,-0.24 v -2.8 c 0,-0.83 0.46,-1.29 1.1,-1.29 0.64,0 1.1,0.46 1.1,1.29 v 2.8 a 0.23,0.23 0 0 0 0.240004,0.24 h 0.63 a 0.25,0.25 0 0 0 0.25,-0.24 v -2.68 c 0,-1.41 -0.62,-2.36 -1.900004,-2.36 z m 6.660004,4.28 h -1.34 c -0.35,0 -0.5,-0.11 -0.5,-0.37 a 0.36,0.36 0 0 1 0.41,-0.37 h 1 a 1.73,1.73 0 0 0 2,-1.76 v -2.12 a 0.24,0.24 0 0 0 -0.24,-0.24 h -0.56 a 0.24,0.24 0 0 0 -0.24,0.24 v 0.67 a 1.87,1.87 0 0 0 -1.06,-0.33 h -0.26 a 1.77,1.77 0 0 0 -2,1.78 1.4,1.4 0 0 0 0.66,1.26 0.83,0.83 0 0 0 -0.7,0.85 0.82,0.82 0 0 0 0.47,0.79 1.26,1.26 0 0 0 -0.7,1.19 1.61,1.61 0 0 0 1.83,1.58 h 1.2 a 1.6,1.6 0 1 0 0,-3.17 z m -0.75,-3.41 h 0.28 a 0.91,0.91 0 1 1 0,1.81 h -0.28 a 0.87,0.87 0 0 1 -1,-0.9 0.88,0.88 0 0 1 1,-0.91 z m 0.54,5.72 h -0.82 c -0.7,0 -0.95,-0.28 -0.95,-0.72 0,-0.44 0.25,-0.75 0.95,-0.75 h 0.8 c 0.71,0 1,0.29 1,0.75 0,0.46 -0.27,0.72 -1,0.72 z m 4.6,-5.12 c 0,-0.43 0.39,-0.57 0.84,-0.57 a 0.89,0.89 0 0 1 1,0.64 c 0,0.11 0.07,0.16 0.18,0.16 h 0.66 a 0.17,0.17 0 0 0 0.17,-0.18 0.44,0.44 0 0 0 0,-0.13 1.81,1.81 0 0 0 -1.93,-1.39 c -1,0 -2,0.45 -2,1.52 0,2.1 2.94,1.23 2.94,2.31 0,0.48 -0.36,0.66 -0.95,0.66 a 1,1 0 0 1 -1.06,-0.69 c 0,-0.1 -0.07,-0.17 -0.18,-0.17 h -0.65 a 0.18,0.18 0 0 0 -0.18,0.17 0.31,0.31 0 0 0 0,0.14 1.88,1.88 0 0 0 2.05,1.44 c 1.07,0 2,-0.4 2,-1.57 0.04,-2.07 -2.89,-1.21 -2.89,-2.34 z m -3.11,-10.24 v -2.22 a 0.93,0.93 0 0 0 -0.93,-0.93 H 98.228036 V 8.8991031 a 0.93,0.93 0 0 0 -0.93,-0.93 h -2.49 a 0.93,0.93 0 0 0 -0.93,0.93 V 28.049103 a 0.93,0.93 0 0 0 0.93,0.93 h 11.400004 a 0.93,0.93 0 0 0 0.95,-0.93 z m 8.25,0 V 8.9091031 a 0.93,0.93 0 0 0 -0.93,-0.93 h -2.49 a 0.93,0.93 0 0 0 -0.93,0.93 V 28.049103 a 0.93,0.93 0 0 0 0.93,0.93 h 2.49 a 0.93,0.93 0 0 0 0.93,-0.93 z m 3,8.88 h -3.41 a 0.25,0.25 0 0 0 -0.25,0.24 v 0.47 a 0.24,0.24 0 0 0 0.25,0.24 h 2.35 l -2.41,3.08 a 0.56,0.56 0 0 0 -0.19,0.46 v 0.42 a 0.24,0.24 0 0 0 0.25,0.24 h 3.41 a 0.23,0.23 0 0 0 0.24,-0.24 v -0.47 a 0.24,0.24 0 0 0 -0.24,-0.25 h -2.39 l 2.48,-3.07 a 0.53,0.53 0 0 0 0.15,-0.41 v -0.5 a 0.24,0.24 0 0 0 -0.2,-0.21 z m 4,-0.11 a 2.21,2.21 0 0 0 -2.24,2.36 v 0.67 a 2.21,2.21 0 0 0 2.25,2.35 2.12,2.12 0 0 0 2,-1.37 0.64,0.64 0 0 0 0,-0.17 0.17,0.17 0 0 0 -0.17,-0.18 h -0.67 a 0.3,0.3 0 0 0 -0.24,0.15 1,1 0 0 1 -1,0.63 1.14,1.14 0 0 1 -1.13,-1.23 v -0.14 h 3.07 a 0.25,0.25 0 0 0 0.37,-0.25 v -0.48 a 2.2,2.2 0 0 0 -2.19,-2.34 z m 1.12,2.28 h -2.24 v -0.12 a 1.12,1.12 0 1 1 2.24,0 z"
     style="fill:#023d6b"
     id="path4"
     inkscape:connector-curvature="0" />
</svg>
